<?xml version="1.0" encoding="utf-8" ?>
<svg baseProfile="full" height="28px" version="1.1" width="28px" xmlns="http://www.w3.org/2000/svg" xmlns:ev="http://www.w3.org/2001/xml-events" xmlns:xlink="http://www.w3.org/1999/xlink"><defs /><circle cx="14.0" cy="14.0" fill="yellow" r="13" stroke="dimgrey" stroke-width="1" /><path d="M 14.0,1.0 L 14.557327486888118,1.0267098942456272 L 15.112364795586242,1.106729820297799 L 15.662831158737802,1.2397309591161516 L 16.206464591981945,1.4251667804926171 L 16.74103118893246,1.6622752888613075 L 17.26433430077831,1.9500821545017182 L 17.774223562784744,2.2874047172685508 L 18.268603730603285,2.6728568463959377 L 18.745443290080146,3.1048546364060723 L 19.202782805183674,3.5816229157165633 L 19.63874296974729,4.101202541201252 L 20.051532329941644,4.66145844872954 L 20.43945464574265,5.2600884266028824 L 20.80091586114561,5.894632575836463 L 21.13443065448325,6.562483418411794 L 21.43862854193104,7.260896611963173 L 21.712259509119214,7.9870022268691425 L 21.954199147709943,8.73781653940888 L 22.163453275832364,9.510254292522998 L 22.33916202338915,10.301141373796579 L 22.480603365447195,11.107227858567912 L 22.587196089192894,11.925201364566066 L 22.658502182260314,12.751700663200136 L 22.694228632617936,13.583329491568481 L 22.694228632617936,14.416670508431517 L 22.658502182260314,15.248299336799864 L 22.587196089192894,16.07479863543393 L 22.480603365447195,16.892772141432086 L 22.339162023389154,17.69885862620342 L 22.163453275832364,18.489745707477 L 21.954199147709943,19.262183460591118 L 21.712259509119214,20.012997773130856 L 21.43862854193104,20.739103388036824 L 21.134430654483246,21.437516581588206 L 20.800915861145615,22.105367424163536 L 20.43945464574265,22.73991157339712 L 20.051532329941644,23.33854155127046 L 19.638742969747298,23.898797458798747 L 19.202782805183677,24.418377084283435 L 18.745443290080146,24.895145363593926 L 18.26860373060329,25.32714315360406 L 17.774223562784744,25.71259528273145 L 17.26433430077831,26.049917845498282 L 16.741031188932467,26.33772471113869 L 16.206464591981945,26.574833219507383 L 15.662831158737804,26.76026904088385 L 15.112364795586243,26.8932701797022 L 14.557327486888122,26.973290105754373 L 14.000000000000002,27.0 L 14.0,27.0 A 13 13 0 0 0 14.0 1.0" fill="dimgrey" fill-opacity="1" /></svg>