<?xml version="1.0" encoding="utf-8" ?>
<svg baseProfile="full" height="28px" version="1.1" width="28px" xmlns="http://www.w3.org/2000/svg" xmlns:ev="http://www.w3.org/2001/xml-events" xmlns:xlink="http://www.w3.org/1999/xlink"><defs /><circle cx="14.0" cy="14.0" fill="yellow" r="13" stroke="dimgrey" stroke-width="1" /><path d="M 14.0,1.0 L 13.167087140250732,1.0267098942456272 L 12.337596898101422,1.106729820297799 L 11.51493782688216,1.2397309591161516 L 10.702490409176404,1.4251667804926171 L 9.903593165692932,1.6622752888613075 L 9.121528936568136,1.9500821545017182 L 8.359511391471745,2.2874047172685508 L 7.620671823948808,2.6728568463959377 L 6.908046284262867,3.1048546364060723 L 6.224563103614193,3.5816229157165633 L 5.5730308609987524,4.101202541201252 L 4.956126842154678,4.66145844872954 L 4.3763860380208985,5.2600884266028824 L 3.8361907279156124,5.894632575836463 L 3.3377606902395733,6.562483418411794 L 2.883144080930501,7.260896611963173 L 2.474209017150999,7.9870022268691425 L 2.1126359007944373,8.73781653940888 L 1.7999105133531152,9.510254292522998 L 1.537317910523413,10.301141373796579 L 1.3259371416362935,11.107227858567912 L 1.166636815612149,11.925201364566066 L 1.060071531660423,12.751700663200136 L 1.0066791893910576,13.583329491568481 L 1.0066791893910576,14.416670508431517 L 1.060071531660423,15.248299336799864 L 1.1666368156121472,16.07479863543393 L 1.3259371416362935,16.892772141432086 L 1.5373179105234112,17.69885862620342 L 1.7999105133531135,18.489745707477 L 2.1126359007944373,19.262183460591118 L 2.474209017150999,20.012997773130856 L 2.8831440809304993,20.739103388036824 L 3.337760690239575,21.437516581588206 L 3.8361907279156107,22.105367424163536 L 4.3763860380208985,22.73991157339712 L 4.956126842154676,23.33854155127046 L 5.573030860998745,23.898797458798747 L 6.224563103614191,24.418377084283435 L 6.908046284262867,24.895145363593926 L 7.620671823948804,25.32714315360406 L 8.359511391471743,25.71259528273145 L 9.121528936568133,26.049917845498282 L 9.903593165692923,26.33772471113869 L 10.702490409176404,26.574833219507383 L 11.514937826882157,26.76026904088385 L 12.33759689810142,26.8932701797022 L 13.167087140250729,26.973290105754373 L 13.999999999999998,27.0 L 14.0,27.0 A 13 13 0 0 0 14.0 1.0" fill="dimgrey" fill-opacity="1" /></svg>