<?xml version="1.0" encoding="utf-8" ?>
<svg baseProfile="full" height="28px" version="1.1" width="28px" xmlns="http://www.w3.org/2000/svg" xmlns:ev="http://www.w3.org/2001/xml-events" xmlns:xlink="http://www.w3.org/1999/xlink"><defs /><circle cx="14.0" cy="14.0" fill="yellow" r="13" stroke="dimgrey" stroke-width="1" /><path d="M 14.0,1.0 L 14.087063101265457,1.0267098942456272 L 14.173768441572838,1.106729820297799 L 14.259759730080583,1.2397309591161516 L 14.344683610139139,1.4251667804926171 L 14.42819111130923,1.6622752888613075 L 14.509939083356247,1.9500821545017182 L 14.589591606328163,2.2874047172685508 L 14.666821370922673,2.6728568463959377 L 14.741311023471326,3.1048546364060723 L 14.81275447001382,3.5816229157165633 L 14.88085813410374,4.101202541201252 L 14.94534216317715,4.66145844872954 L 15.005941578526807,5.2600884266028824 L 15.062407364156506,5.894632575836463 L 15.114507490041222,6.562483418411794 L 15.16202786558825,7.260896611963173 L 15.20477321938138,7.9870022268691425 L 15.242567901593029,8.73781653940888 L 15.275256605767051,9.510254292522998 L 15.302705007006294,10.301141373796579 L 15.324800313942399,11.107227858567912 L 15.341451732219738,11.925201364566066 L 15.352590837588894,12.751700663200136 L 15.358171857076572,13.583329491568481 L 15.358171857076572,14.416670508431517 L 15.352590837588894,15.248299336799864 L 15.341451732219738,16.07479863543393 L 15.324800313942399,16.892772141432086 L 15.302705007006294,17.69885862620342 L 15.275256605767051,18.489745707477 L 15.242567901593029,19.262183460591118 L 15.20477321938138,20.012997773130856 L 15.16202786558825,20.739103388036824 L 15.114507490041222,21.437516581588206 L 15.062407364156506,22.105367424163536 L 15.005941578526807,22.73991157339712 L 14.94534216317715,23.33854155127046 L 14.88085813410374,23.898797458798747 L 14.81275447001382,24.418377084283435 L 14.741311023471326,24.895145363593926 L 14.666821370922673,25.32714315360406 L 14.589591606328163,25.71259528273145 L 14.509939083356247,26.049917845498282 L 14.42819111130923,26.33772471113869 L 14.344683610139139,26.574833219507383 L 14.259759730080583,26.76026904088385 L 14.173768441572838,26.8932701797022 L 14.087063101265457,26.973290105754373 L 14.0,27.0 L 14.0,27.0 A 13 13 0 0 0 14.0 1.0" fill="dimgrey" fill-opacity="1" /></svg>