<?xml version="1.0" encoding="utf-8" ?>
<svg baseProfile="full" height="28px" version="1.1" width="28px" xmlns="http://www.w3.org/2000/svg" xmlns:ev="http://www.w3.org/2001/xml-events" xmlns:xlink="http://www.w3.org/1999/xlink"><defs /><circle cx="14.0" cy="14.0" fill="yellow" r="13" stroke="dimgrey" stroke-width="1" /><path d="M 14.0,1.0 L 13.249571443690336,1.0267098942456272 L 12.502226559284969,1.106729820297799 L 11.761036347218894,1.2397309591161516 L 11.029046517058296,1.4251667804926171 L 10.309264972026629,1.6622752888613075 L 9.604649448885084,1.9500821545017182 L 8.918095363957807,2.2874047172685508 L 8.252423915245153,2.6728568463959377 L 7.610370489515962,3.1048546364060723 L 6.994573422016581,3.5816229157165633 L 6.407563154985423,4.101202541201252 L 5.8517518395230255,4.66145844872954 L 5.329423423545775,5.2600884266028824 L 4.84272426655402,5.894632575836463 L 4.393654319780479,6.562483418411794 L 3.984058907961648,7.260896611963173 L 3.615621146502626,7.9870022268691425 L 3.289855025194905,8.73781653940888 L 3.008099186907552,9.510254292522998 L 2.7715114268165255,10.301141373796579 L 2.5810639347759547,11.107227858567912 L 2.437539300381495,11.925201364566066 L 2.3415272971418073,12.751700663200136 L 2.293422458972719,13.583329491568481 L 2.293422458972719,14.416670508431517 L 2.3415272971418073,15.248299336799864 L 2.437539300381493,16.07479863543393 L 2.5810639347759547,16.892772141432086 L 2.7715114268165237,17.69885862620342 L 3.0080991869075504,18.489745707477 L 3.289855025194905,19.262183460591118 L 3.615621146502626,20.012997773130856 L 3.9840589079616464,20.739103388036824 L 4.393654319780481,21.437516581588206 L 4.842724266554018,22.105367424163536 L 5.329423423545775,22.73991157339712 L 5.851751839523024,23.33854155127046 L 6.407563154985417,23.898797458798747 L 6.994573422016579,24.418377084283435 L 7.610370489515962,24.895145363593926 L 8.25242391524515,25.32714315360406 L 8.918095363957807,25.71259528273145 L 9.60464944888508,26.049917845498282 L 10.309264972026622,26.33772471113869 L 11.029046517058296,26.574833219507383 L 11.76103634721889,26.76026904088385 L 12.502226559284967,26.8932701797022 L 13.249571443690332,26.973290105754373 L 13.999999999999998,27.0 L 14.0,27.0 A 13 13 0 0 1 14.0 1.0" fill="dimgrey" fill-opacity="1" /></svg>