<?xml version="1.0" encoding="utf-8" ?>
<svg baseProfile="full" height="28px" version="1.1" width="28px" xmlns="http://www.w3.org/2000/svg" xmlns:ev="http://www.w3.org/2001/xml-events" xmlns:xlink="http://www.w3.org/1999/xlink"><defs /><circle cx="14.0" cy="14.0" fill="yellow" r="13" stroke="dimgrey" stroke-width="1" /><path d="M 14.0,1.0 L 14.416456429874634,1.0267098942456272 L 14.83120155094929,1.106729820297799 L 15.242531086558921,1.2397309591161516 L 15.648754795411799,1.4251667804926171 L 16.048203417153537,1.6622752888613075 L 16.439235531715934,1.9500821545017182 L 16.82024430426413,2.2874047172685508 L 17.189664088025598,2.6728568463959377 L 17.545976857868567,3.1048546364060723 L 17.887718448192906,3.5816229157165633 L 18.213484569500626,4.101202541201252 L 18.521936578922663,4.66145844872954 L 18.811806980989555,5.2600884266028824 L 19.081904636042196,5.894632575836463 L 19.33111965488022,6.562483418411794 L 19.558427959534754,7.260896611963173 L 19.762895491424505,7.9870022268691425 L 19.943682049602785,8.73781653940888 L 20.100044743323448,9.510254292522998 L 20.231341044738297,10.301141373796579 L 20.337031429181856,11.107227858567912 L 20.41668159219393,11.925201364566066 L 20.469964234169794,12.751700663200136 L 20.496660405304475,13.583329491568481 L 20.496660405304475,14.416670508431517 L 20.469964234169794,15.248299336799864 L 20.41668159219393,16.07479863543393 L 20.337031429181856,16.892772141432086 L 20.2313410447383,17.69885862620342 L 20.100044743323448,18.489745707477 L 19.943682049602785,19.262183460591118 L 19.762895491424505,20.012997773130856 L 19.558427959534754,20.739103388036824 L 19.331119654880215,21.437516581588206 L 19.081904636042196,22.105367424163536 L 18.811806980989555,22.73991157339712 L 18.521936578922663,23.33854155127046 L 18.21348456950063,23.898797458798747 L 17.887718448192906,24.418377084283435 L 17.545976857868567,24.895145363593926 L 17.1896640880256,25.32714315360406 L 16.82024430426413,25.71259528273145 L 16.439235531715937,26.049917845498282 L 16.04820341715354,26.33772471113869 L 15.648754795411799,26.574833219507383 L 15.242531086558923,26.76026904088385 L 14.83120155094929,26.8932701797022 L 14.416456429874636,26.973290105754373 L 14.0,27.0 L 14.0,27.0 A 13 13 0 0 0 14.0 1.0" fill="dimgrey" fill-opacity="1" /></svg>