<?xml version="1.0" encoding="utf-8" ?>
<svg baseProfile="full" height="28px" version="1.1" width="28px" xmlns="http://www.w3.org/2000/svg" xmlns:ev="http://www.w3.org/2001/xml-events" xmlns:xlink="http://www.w3.org/1999/xlink"><defs /><circle cx="14.0" cy="14.0" fill="yellow" r="13" stroke="dimgrey" stroke-width="1" /><path d="M 14.0,1.0 L 13.326159341629406,1.0267098942456272 L 12.655087639062423,1.106729820297799 L 11.989542469869331,1.2397309591161516 L 11.332258701909332,1.4251667804926171 L 10.685937255171902,1.6622752888613075 L 10.0532340031172,1.9500821545017182 L 9.436748859122343,2.2874047172685508 L 8.839015092879649,2.6728568463959377 L 8.262488920648105,3.1048546364060723 L 7.709539412133886,3.5816229157165633 L 7.182438755474773,4.101202541201252 L 6.683352920331714,4.66145844872954 L 6.214332757454889,5.2600884266028824 L 5.777305571298067,5.894632575836463 L 5.374067200311206,6.562483418411794 L 5.006274637455052,7.260896611963173 L 4.67543922126163,7.9870022268691425 L 4.382920425420062,8.73781653940888 L 4.129920272407544,9.510254292522998 L 3.9174783941211633,10.301141373796579 L 3.746467759807441,11.107227858567912 L 3.6175910888444385,11.925201364566066 L 3.5313779631171,12.751700663200136 L 3.4881826508516998,13.583329491568481 L 3.4881826508516998,14.416670508431517 L 3.5313779631171,15.248299336799864 L 3.6175910888444367,16.07479863543393 L 3.746467759807441,16.892772141432086 L 3.9174783941211615,17.69885862620342 L 4.129920272407542,18.489745707477 L 4.382920425420062,19.262183460591118 L 4.67543922126163,20.012997773130856 L 5.00627463745505,20.739103388036824 L 5.374067200311208,21.437516581588206 L 5.777305571298067,22.105367424163536 L 6.214332757454889,22.73991157339712 L 6.683352920331712,23.33854155127046 L 7.1824387554747675,23.898797458798747 L 7.709539412133884,24.418377084283435 L 8.262488920648105,24.895145363593926 L 8.839015092879647,25.32714315360406 L 9.436748859122341,25.71259528273145 L 10.053234003117197,26.049917845498282 L 10.685937255171895,26.33772471113869 L 11.332258701909332,26.574833219507383 L 11.989542469869328,26.76026904088385 L 12.655087639062423,26.8932701797022 L 13.326159341629403,26.973290105754373 L 13.999999999999998,27.0 L 14.0,27.0 A 13 13 0 0 0 14.0 1.0" fill="dimgrey" fill-opacity="1" /></svg>