<?xml version="1.0" encoding="utf-8" ?>
<svg baseProfile="full" height="28px" version="1.1" width="28px" xmlns="http://www.w3.org/2000/svg" xmlns:ev="http://www.w3.org/2001/xml-events" xmlns:xlink="http://www.w3.org/1999/xlink"><defs /><circle cx="14.0" cy="14.0" fill="yellow" r="13" stroke="dimgrey" stroke-width="1" /><path d="M 14.0,1.0 L 13.442672513111882,1.0267098942456272 L 12.887635204413758,1.106729820297799 L 12.337168841262198,1.2397309591161516 L 11.793535408018059,1.4251667804926171 L 11.258968811067541,1.6622752888613075 L 10.735665699221695,1.9500821545017182 L 10.225776437215258,2.2874047172685508 L 9.731396269396718,2.6728568463959377 L 9.254556709919857,3.1048546364060723 L 8.797217194816328,3.5816229157165633 L 8.361257030252712,4.101202541201252 L 7.948467670058361,4.66145844872954 L 7.560545354257353,5.2600884266028824 L 7.199084138854391,5.894632575836463 L 6.8655693455167555,6.562483418411794 L 6.561371458068968,7.260896611963173 L 6.2877404908807915,7.9870022268691425 L 6.045800852290063,8.73781653940888 L 5.836546724167643,9.510254292522998 L 5.660837976610853,10.301141373796579 L 5.5193966345528125,11.107227858567912 L 5.4128039108071135,11.925201364566066 L 5.3414978177396915,12.751700663200136 L 5.3057713673820714,13.583329491568481 L 5.3057713673820714,14.416670508431517 L 5.3414978177396915,15.248299336799864 L 5.412803910807112,16.07479863543393 L 5.5193966345528125,16.892772141432086 L 5.660837976610852,17.69885862620342 L 5.836546724167642,18.489745707477 L 6.045800852290063,19.262183460591118 L 6.2877404908807915,20.012997773130856 L 6.561371458068966,20.739103388036824 L 6.865569345516756,21.437516581588206 L 7.19908413885439,22.105367424163536 L 7.560545354257353,22.73991157339712 L 7.948467670058359,23.33854155127046 L 8.361257030252709,23.898797458798747 L 8.797217194816326,24.418377084283435 L 9.254556709919857,24.895145363593926 L 9.731396269396717,25.32714315360406 L 10.225776437215258,25.71259528273145 L 10.735665699221691,26.049917845498282 L 11.258968811067536,26.33772471113869 L 11.793535408018059,26.574833219507383 L 12.337168841262196,26.76026904088385 L 12.887635204413758,26.8932701797022 L 13.44267251311188,26.973290105754373 L 13.999999999999998,27.0 L 14.0,27.0 A 13 13 0 0 0 14.0 1.0" fill="dimgrey" fill-opacity="1" /></svg>