<?xml version="1.0" encoding="utf-8" ?>
<svg baseProfile="full" height="28px" version="1.1" width="28px" xmlns="http://www.w3.org/2000/svg" xmlns:ev="http://www.w3.org/2001/xml-events" xmlns:xlink="http://www.w3.org/1999/xlink"><defs /><circle cx="14.0" cy="14.0" fill="yellow" r="13" stroke="dimgrey" stroke-width="1" /><path d="M 14.0,1.0 L 14.0,1.0267098942456272 L 14.0,1.106729820297799 L 14.0,1.2397309591161516 L 14.0,1.4251667804926171 L 14.0,1.6622752888613075 L 14.0,1.9500821545017182 L 14.0,2.2874047172685508 L 14.0,2.6728568463959377 L 14.0,3.1048546364060723 L 14.0,3.5816229157165633 L 14.0,4.101202541201252 L 14.0,4.66145844872954 L 14.0,5.2600884266028824 L 14.0,5.894632575836463 L 14.0,6.562483418411794 L 14.0,7.260896611963173 L 14.0,7.9870022268691425 L 14.0,8.73781653940888 L 14.0,9.510254292522998 L 14.0,10.301141373796579 L 14.0,11.107227858567912 L 14.0,11.925201364566066 L 14.0,12.751700663200136 L 14.0,13.583329491568481 L 14.0,14.416670508431517 L 14.0,15.248299336799864 L 14.0,16.07479863543393 L 14.0,16.892772141432086 L 14.0,17.69885862620342 L 14.0,18.489745707477 L 14.0,19.262183460591118 L 14.0,20.012997773130856 L 14.0,20.739103388036824 L 14.0,21.437516581588206 L 14.0,22.105367424163536 L 14.0,22.73991157339712 L 14.0,23.33854155127046 L 14.0,23.898797458798747 L 14.0,24.418377084283435 L 14.0,24.895145363593926 L 14.0,25.32714315360406 L 14.0,25.71259528273145 L 14.0,26.049917845498282 L 14.0,26.33772471113869 L 14.0,26.574833219507383 L 14.0,26.76026904088385 L 14.0,26.8932701797022 L 14.0,26.973290105754373 L 14.0,27.0 L 14.0,27.0 A 13 13 0 0 1 14.0 1.0" fill="dimgrey" fill-opacity="1" /></svg>