<?xml version="1.0" encoding="utf-8" ?>
<svg baseProfile="full" height="28px" version="1.1" width="28px" xmlns="http://www.w3.org/2000/svg" xmlns:ev="http://www.w3.org/2001/xml-events" xmlns:xlink="http://www.w3.org/1999/xlink"><defs /><circle cx="14.0" cy="14.0" fill="yellow" r="13" stroke="dimgrey" stroke-width="1" /><path d="M 14.0,1.0 L 13.480687326109338,1.0267098942456272 L 12.963508619387913,1.106729820297799 L 12.450589078076124,1.2397309591161516 L 11.944036398590123,1.4251667804926171 L 11.445932114545124,1.6622752888613075 L 10.958323043287303,1.9500821545017182 L 10.483212875082275,2.2874047172685508 L 10.022553939522005,2.6728568463959377 L 9.578239182983747,3.1048546364060723 L 9.152094390107328,3.5816229157165633 L 8.74587068125445,4.101202541201252 L 8.361237316779501,4.66145844872954 L 7.999774837680709,5.2600884266028824 L 7.662968570818147,5.894632575836463 L 7.352202525387073,6.562483418411794 L 7.06875370572727,7.260896611963173 L 6.813786863838299,7.9870022268691425 L 6.588349713163701,8.73781653940888 L 6.393368623311717,9.510254292522998 L 6.229644813403856,10.301141373796579 L 6.09785105969368,11.107227858567912 L 5.998528930984854,11.925201364566066 L 5.932086563208772,12.751700663200136 L 5.898796982306472,13.583329491568481 L 5.898796982306472,14.416670508431517 L 5.932086563208772,15.248299336799864 L 5.998528930984852,16.07479863543393 L 6.09785105969368,16.892772141432086 L 6.229644813403855,17.69885862620342 L 6.393368623311715,18.489745707477 L 6.588349713163701,19.262183460591118 L 6.813786863838299,20.012997773130856 L 7.068753705727269,20.739103388036824 L 7.3522025253870735,21.437516581588206 L 7.662968570818146,22.105367424163536 L 7.999774837680709,22.73991157339712 L 8.361237316779501,23.33854155127046 L 8.745870681254445,23.898797458798747 L 9.152094390107326,24.418377084283435 L 9.578239182983747,24.895145363593926 L 10.022553939522004,25.32714315360406 L 10.483212875082273,25.71259528273145 L 10.958323043287301,26.049917845498282 L 11.44593211454512,26.33772471113869 L 11.944036398590123,26.574833219507383 L 12.450589078076122,26.76026904088385 L 12.96350861938791,26.8932701797022 L 13.480687326109335,26.973290105754373 L 13.999999999999998,27.0 L 14.0,27.0 A 13 13 0 0 1 14.0 1.0" fill="dimgrey" fill-opacity="1" /></svg>