<?xml version="1.0" encoding="utf-8" ?>
<svg baseProfile="full" height="28px" version="1.1" width="28px" xmlns="http://www.w3.org/2000/svg" xmlns:ev="http://www.w3.org/2001/xml-events" xmlns:xlink="http://www.w3.org/1999/xlink"><defs /><circle cx="14.0" cy="14.0" fill="yellow" r="13" stroke="dimgrey" stroke-width="1" /><path d="M 14.0,1.0 L 14.750428556309664,1.0267098942456272 L 15.497773440715031,1.106729820297799 L 16.238963652781106,1.2397309591161516 L 16.970953482941702,1.4251667804926171 L 17.69073502797337,1.6622752888613075 L 18.395350551114916,1.9500821545017182 L 19.081904636042193,2.2874047172685508 L 19.747576084754847,2.6728568463959377 L 20.38962951048404,3.1048546364060723 L 21.00542657798342,3.5816229157165633 L 21.59243684501458,4.101202541201252 L 22.148248160476975,4.66145844872954 L 22.670576576454224,5.2600884266028824 L 23.15727573344598,5.894632575836463 L 23.606345680219523,6.562483418411794 L 24.015941092038354,7.260896611963173 L 24.384378853497374,7.9870022268691425 L 24.710144974805097,8.73781653940888 L 24.99190081309245,9.510254292522998 L 25.228488573183476,10.301141373796579 L 25.418936065224045,11.107227858567912 L 25.562460699618505,11.925201364566066 L 25.65847270285819,12.751700663200136 L 25.706577541027283,13.583329491568481 L 25.706577541027283,14.416670508431517 L 25.65847270285819,15.248299336799864 L 25.56246069961851,16.07479863543393 L 25.418936065224045,16.892772141432086 L 25.228488573183476,17.69885862620342 L 24.99190081309245,18.489745707477 L 24.710144974805097,19.262183460591118 L 24.384378853497374,20.012997773130856 L 24.015941092038354,20.739103388036824 L 23.60634568021952,21.437516581588206 L 23.157275733445985,22.105367424163536 L 22.670576576454224,22.73991157339712 L 22.148248160476978,23.33854155127046 L 21.592436845014582,23.898797458798747 L 21.00542657798342,24.418377084283435 L 20.38962951048404,24.895145363593926 L 19.74757608475485,25.32714315360406 L 19.081904636042196,25.71259528273145 L 18.395350551114923,26.049917845498282 L 17.69073502797338,26.33772471113869 L 16.970953482941702,26.574833219507383 L 16.23896365278111,26.76026904088385 L 15.497773440715033,26.8932701797022 L 14.750428556309668,26.973290105754373 L 14.000000000000002,27.0 L 14.0,27.0 A 13 13 0 0 1 14.0 1.0" fill="dimgrey" fill-opacity="1" /></svg>