<?xml version="1.0" encoding="utf-8" ?>
<svg baseProfile="full" height="28px" version="1.1" width="28px" xmlns="http://www.w3.org/2000/svg" xmlns:ev="http://www.w3.org/2001/xml-events" xmlns:xlink="http://www.w3.org/1999/xlink"><defs /><circle cx="14.0" cy="14.0" fill="yellow" r="13" stroke="dimgrey" stroke-width="1" /><path d="M 14.0,1.0 L 13.63861265405289,1.0267098942456272 L 13.278710326227618,1.106729820297799 L 12.921771932388028,1.2397309591161516 L 12.56926420895745,1.4251667804926171 L 12.22263568578413,1.6622752888613075 L 11.883310733821373,1.9500821545017182 L 11.552683712081768,2.2874047172685508 L 11.232113237916916,2.6728568463959377 L 10.922916604167312,3.1048546364060723 L 10.626364366123505,3.5816229157165633 L 10.34367512054187,4.101202541201252 L 10.076010498169154,4.66145844872954 L 9.82447039035257,5.2600884266028824 L 9.59008842935032,5.894632575836463 L 9.373827740914935,6.562483418411794 L 9.176576986602967,7.260896611963173 L 8.99914671207404,7.9870022268691425 L 8.842266016384869,8.73781653940888 L 8.70657955596484,9.510254292522998 L 8.592644895584478,10.301141373796579 L 8.500930217202189,11.107227858567912 L 8.431812396104188,11.925201364566066 L 8.385575452243089,12.751700663200136 L 8.362409383139012,13.583329491568481 L 8.362409383139012,14.416670508431517 L 8.385575452243089,15.248299336799864 L 8.431812396104187,16.07479863543393 L 8.500930217202189,16.892772141432086 L 8.592644895584476,17.69885862620342 L 8.70657955596484,18.489745707477 L 8.842266016384869,19.262183460591118 L 8.99914671207404,20.012997773130856 L 9.176576986602967,20.739103388036824 L 9.373827740914935,21.437516581588206 L 9.59008842935032,22.105367424163536 L 9.82447039035257,22.73991157339712 L 10.076010498169154,23.33854155127046 L 10.343675120541867,23.898797458798747 L 10.626364366123504,24.418377084283435 L 10.922916604167312,24.895145363593926 L 11.232113237916916,25.32714315360406 L 11.552683712081768,25.71259528273145 L 11.883310733821371,26.049917845498282 L 12.222635685784127,26.33772471113869 L 12.56926420895745,26.574833219507383 L 12.921771932388026,26.76026904088385 L 13.278710326227618,26.8932701797022 L 13.638612654052888,26.973290105754373 L 14.0,27.0 L 14.0,27.0 A 13 13 0 0 1 14.0 1.0" fill="dimgrey" fill-opacity="1" /></svg>