<?xml version="1.0" encoding="utf-8" ?>
<svg baseProfile="full" height="28px" version="1.1" width="28px" xmlns="http://www.w3.org/2000/svg" xmlns:ev="http://www.w3.org/2001/xml-events" xmlns:xlink="http://www.w3.org/1999/xlink"><defs /><circle cx="14.0" cy="14.0" fill="yellow" r="13" stroke="dimgrey" stroke-width="1" /><path d="M 14.0,1.0 L 13.74261577150404,1.0267098942456272 L 13.486289190011712,1.106729820297799 L 13.23207355642825,1.2397309591161516 L 12.981013497321129,1.4251667804926171 L 12.734140672325436,1.6622752888613075 L 12.492469534833132,1.9500821545017182 L 12.25699316338647,2.2874047172685508 L 12.028679180905245,2.6728568463959377 L 11.808465778516672,3.1048546364060723 L 11.597257860326788,3.5816229157165633 L 11.395923324975396,4.101202541201252 L 11.205289499254375,4.66145844872954 L 11.026139738444439,5.2600884266028824 L 10.859210207340261,5.894632575836463 L 10.70518685519142,6.562483418411794 L 10.5647025969898,7.260896611963173 L 10.438334712686132,7.9870022268691425 L 10.326602475022844,8.73781653940888 L 10.229965015730986,9.510254292522998 L 10.148819438859457,10.301141373796579 L 10.083499188989293,11.107227858567912 L 10.034272681038363,11.925201364566066 L 10.001342197286888,12.751700663200136 L 9.98484305615617,13.583329491568481 L 9.98484305615617,14.416670508431517 L 10.001342197286888,15.248299336799864 L 10.034272681038363,16.07479863543393 L 10.083499188989293,16.892772141432086 L 10.148819438859455,17.69885862620342 L 10.229965015730984,18.489745707477 L 10.326602475022844,19.262183460591118 L 10.438334712686132,20.012997773130856 L 10.5647025969898,20.739103388036824 L 10.705186855191421,21.437516581588206 L 10.859210207340261,22.105367424163536 L 11.026139738444439,22.73991157339712 L 11.205289499254373,23.33854155127046 L 11.395923324975394,23.898797458798747 L 11.597257860326788,24.418377084283435 L 11.808465778516672,24.895145363593926 L 12.028679180905245,25.32714315360406 L 12.256993163386468,25.71259528273145 L 12.49246953483313,26.049917845498282 L 12.734140672325434,26.33772471113869 L 12.981013497321129,26.574833219507383 L 13.232073556428249,26.76026904088385 L 13.486289190011712,26.8932701797022 L 13.742615771504038,26.973290105754373 L 14.0,27.0 L 14.0,27.0 A 13 13 0 0 0 14.0 1.0" fill="dimgrey" fill-opacity="1" /></svg>