<?xml version="1.0" encoding="utf-8" ?>
<svg baseProfile="full" height="28px" version="1.1" width="28px" xmlns="http://www.w3.org/2000/svg" xmlns:ev="http://www.w3.org/2001/xml-events" xmlns:xlink="http://www.w3.org/1999/xlink"><defs /><circle cx="14.0" cy="14.0" fill="yellow" r="13" stroke="dimgrey" stroke-width="1" /><path d="M 14.0,1.0 L 13.239096240363947,1.0267098942456272 L 12.481319197489585,1.106729820297799 L 11.729782739788746,1.2397309591161516 L 10.987575091770193,1.4251667804926171 L 10.25774614386267,1.6622752888613075 L 9.543294919760953,1.9500821545017182 L 8.847157252794176,2.2874047172685508 L 8.172193721956974,2.6728568463959377 L 7.521177897176776,3.1048546364060723 L 6.896784942120062,3.5816229157165633 L 6.301580621371031,4.101202541201252 L 5.73801075715456,4.66145844872954 L 5.208391178928077,5.2600884266028824 L 4.714898207141557,5.894632575836463 L 4.259559710269981,6.562483418411794 L 3.8442467718667963,7.260896611963173 L 3.470666001880245,7.9870022268691425 L 3.14035252382703,8.73781653940888 L 2.854663666640487,9.510254292522998 L 2.614773387114864,10.301141373796579 L 2.4216674458650367,11.107227858567912 L 2.276139356624693,11.925201364566066 L 2.178787125528201,12.751700663200136 L 2.1300107937751225,13.583329491568481 L 2.1300107937751225,14.416670508431517 L 2.178787125528201,15.248299336799864 L 2.2761393566246912,16.07479863543393 L 2.4216674458650367,16.892772141432086 L 2.6147733871148624,17.69885862620342 L 2.8546636666404854,18.489745707477 L 3.14035252382703,19.262183460591118 L 3.470666001880245,20.012997773130856 L 3.8442467718667963,20.739103388036824 L 4.259559710269983,21.437516581588206 L 4.714898207141555,22.105367424163536 L 5.208391178928077,22.73991157339712 L 5.738010757154559,23.33854155127046 L 6.3015806213710235,23.898797458798747 L 6.896784942120061,24.418377084283435 L 7.521177897176776,24.895145363593926 L 8.172193721956972,25.32714315360406 L 8.847157252794176,25.71259528273145 L 9.543294919760948,26.049917845498282 L 10.257746143862663,26.33772471113869 L 10.987575091770193,26.574833219507383 L 11.729782739788744,26.76026904088385 L 12.481319197489583,26.8932701797022 L 13.239096240363944,26.973290105754373 L 13.999999999999998,27.0 L 14.0,27.0 A 13 13 0 0 0 14.0 1.0" fill="dimgrey" fill-opacity="1" /></svg>