<?xml version="1.0" encoding="utf-8" ?>
<svg baseProfile="full" height="28px" version="1.1" width="28px" xmlns="http://www.w3.org/2000/svg" xmlns:ev="http://www.w3.org/2001/xml-events" xmlns:xlink="http://www.w3.org/1999/xlink"><defs /><circle cx="14.0" cy="14.0" fill="yellow" r="13" stroke="dimgrey" stroke-width="1" /><path d="M 14.0,1.0 L 14.185340547455631,1.0267098942456272 L 14.369919490846346,1.106729820297799 L 14.55297835570169,1.2397309591161516 L 14.733764913879972,1.4251667804926171 L 14.911536274635038,1.6622752888613075 L 15.085561937313713,1.9500821545017182 L 15.25512679313966,2.2874047172685508 L 15.419534063748744,2.6728568463959377 L 15.578108164400781,3.1048546364060723 L 15.730197480102158,3.5816229157165633 L 15.875177043231597,4.101202541201252 L 16.012451101666183,4.66145844872954 L 16.141455566854617,5.2600884266028824 L 16.261660331778067,5.894632575836463 L 16.37257144927362,6.562483418411794 L 16.473733161769125,7.260896611963173 L 16.56472977408883,7.9870022268691425 L 16.645187361633983,8.73781653940888 L 16.71477530691928,9.510254292522998 L 16.773207658150962,10.301141373796579 L 16.82024430426413,11.107227858567912 L 16.855691961590566,11.925201364566066 L 16.879404968102826,12.751700663200136 L 16.891285881970717,13.583329491568481 L 16.891285881970717,14.416670508431517 L 16.879404968102826,15.248299336799864 L 16.855691961590566,16.07479863543393 L 16.82024430426413,16.892772141432086 L 16.773207658150962,17.69885862620342 L 16.71477530691928,18.489745707477 L 16.645187361633983,19.262183460591118 L 16.56472977408883,20.012997773130856 L 16.47373316176913,20.739103388036824 L 16.372571449273618,21.437516581588206 L 16.261660331778067,22.105367424163536 L 16.141455566854617,22.73991157339712 L 16.012451101666183,23.33854155127046 L 15.875177043231599,23.898797458798747 L 15.730197480102158,24.418377084283435 L 15.578108164400781,24.895145363593926 L 15.419534063748744,25.32714315360406 L 15.25512679313966,25.71259528273145 L 15.085561937313713,26.049917845498282 L 14.91153627463504,26.33772471113869 L 14.733764913879972,26.574833219507383 L 14.55297835570169,26.76026904088385 L 14.369919490846346,26.8932701797022 L 14.185340547455633,26.973290105754373 L 14.0,27.0 L 14.0,27.0 A 13 13 0 0 1 14.0 1.0" fill="dimgrey" fill-opacity="1" /></svg>