<?xml version="1.0" encoding="utf-8" ?>
<svg baseProfile="full" height="28px" version="1.1" width="28px" xmlns="http://www.w3.org/2000/svg" xmlns:ev="http://www.w3.org/2001/xml-events" xmlns:xlink="http://www.w3.org/1999/xlink"><defs /><circle cx="14.0" cy="14.0" fill="yellow" r="13" stroke="dimgrey" stroke-width="1" /><path d="M 14.0,1.0 L 14.519312673890662,1.0267098942456272 L 15.036491380612087,1.106729820297799 L 15.549410921923876,1.2397309591161516 L 16.05596360140988,1.4251667804926171 L 16.554067885454877,1.6622752888613075 L 17.0416769567127,1.9500821545017182 L 17.516787124917727,2.2874047172685508 L 17.977446060477995,2.6728568463959377 L 18.421760817016256,3.1048546364060723 L 18.847905609892674,3.5816229157165633 L 19.25412931874555,4.101202541201252 L 19.6387626832205,4.66145844872954 L 20.000225162319293,5.2600884266028824 L 20.337031429181856,5.894632575836463 L 20.64779747461293,6.562483418411794 L 20.931246294272732,7.260896611963173 L 21.1862131361617,7.9870022268691425 L 21.4116502868363,8.73781653940888 L 21.606631376688284,9.510254292522998 L 21.770355186596145,10.301141373796579 L 21.902148940306322,11.107227858567912 L 22.001471069015146,11.925201364566066 L 22.06791343679123,12.751700663200136 L 22.10120301769353,13.583329491568481 L 22.10120301769353,14.416670508431517 L 22.06791343679123,15.248299336799864 L 22.00147106901515,16.07479863543393 L 21.902148940306322,16.892772141432086 L 21.770355186596145,17.69885862620342 L 21.606631376688284,18.489745707477 L 21.4116502868363,19.262183460591118 L 21.1862131361617,20.012997773130856 L 20.931246294272732,20.739103388036824 L 20.64779747461293,21.437516581588206 L 20.337031429181856,22.105367424163536 L 20.000225162319293,22.73991157339712 L 19.6387626832205,23.33854155127046 L 19.254129318745555,23.898797458798747 L 18.847905609892674,24.418377084283435 L 18.421760817016256,24.895145363593926 L 17.977446060477995,25.32714315360406 L 17.516787124917727,25.71259528273145 L 17.0416769567127,26.049917845498282 L 16.55406788545488,26.33772471113869 L 16.05596360140988,26.574833219507383 L 15.549410921923878,26.76026904088385 L 15.03649138061209,26.8932701797022 L 14.519312673890665,26.973290105754373 L 14.000000000000002,27.0 L 14.0,27.0 A 13 13 0 0 1 14.0 1.0" fill="dimgrey" fill-opacity="1" /></svg>