<?xml version="1.0" encoding="utf-8" ?>
<svg baseProfile="full" height="28px" version="1.1" width="28px" xmlns="http://www.w3.org/2000/svg" xmlns:ev="http://www.w3.org/2001/xml-events" xmlns:xlink="http://www.w3.org/1999/xlink"><defs /><circle cx="14.0" cy="14.0" fill="yellow" r="13" stroke="dimgrey" stroke-width="1" /><path d="M 14.0,1.0 L 14.673840658370596,1.0267098942456272 L 15.344912360937577,1.106729820297799 L 16.01045753013067,1.2397309591161516 L 16.667741298090668,1.4251667804926171 L 17.3140627448281,1.6622752888613075 L 17.9467659968828,1.9500821545017182 L 18.56325114087766,2.2874047172685508 L 19.16098490712035,2.6728568463959377 L 19.737511079351897,3.1048546364060723 L 20.290460587866114,3.5816229157165633 L 20.81756124452523,4.101202541201252 L 21.316647079668286,4.66145844872954 L 21.785667242545113,5.2600884266028824 L 22.222694428701935,5.894632575836463 L 22.625932799688794,6.562483418411794 L 22.99372536254495,7.260896611963173 L 23.32456077873837,7.9870022268691425 L 23.61707957457994,8.73781653940888 L 23.870079727592458,9.510254292522998 L 24.08252160587884,10.301141373796579 L 24.253532240192563,11.107227858567912 L 24.382408911155565,11.925201364566066 L 24.468622036882902,12.751700663200136 L 24.511817349148302,13.583329491568481 L 24.511817349148302,14.416670508431517 L 24.468622036882902,15.248299336799864 L 24.382408911155565,16.07479863543393 L 24.253532240192563,16.892772141432086 L 24.08252160587884,17.69885862620342 L 23.87007972759246,18.489745707477 L 23.61707957457994,19.262183460591118 L 23.32456077873837,20.012997773130856 L 22.99372536254495,20.739103388036824 L 22.625932799688794,21.437516581588206 L 22.222694428701935,22.105367424163536 L 21.785667242545113,22.73991157339712 L 21.31664707966829,23.33854155127046 L 20.817561244525233,23.898797458798747 L 20.290460587866118,24.418377084283435 L 19.737511079351897,24.895145363593926 L 19.160984907120355,25.32714315360406 L 18.56325114087766,25.71259528273145 L 17.946765996882803,26.049917845498282 L 17.314062744828107,26.33772471113869 L 16.667741298090668,26.574833219507383 L 16.010457530130672,26.76026904088385 L 15.344912360937577,26.8932701797022 L 14.673840658370597,26.973290105754373 L 14.000000000000002,27.0 L 14.0,27.0 A 13 13 0 0 0 14.0 1.0" fill="dimgrey" fill-opacity="1" /></svg>