<?xml version="1.0" encoding="utf-8" ?>
<svg baseProfile="full" height="28px" version="1.1" width="28px" xmlns="http://www.w3.org/2000/svg" xmlns:ev="http://www.w3.org/2001/xml-events" xmlns:xlink="http://www.w3.org/1999/xlink"><defs /><circle cx="14.0" cy="14.0" fill="yellow" r="13" stroke="dimgrey" stroke-width="1" /><path d="M 14.0,1.0 L 14.361387345947112,1.0267098942456272 L 14.721289673772382,1.106729820297799 L 15.078228067611972,1.2397309591161516 L 15.43073579104255,1.4251667804926171 L 15.77736431421587,1.6622752888613075 L 16.11668926617863,1.9500821545017182 L 16.447316287918234,2.2874047172685508 L 16.767886762083084,2.6728568463959377 L 17.077083395832688,3.1048546364060723 L 17.373635633876496,3.5816229157165633 L 17.656324879458133,4.101202541201252 L 17.923989501830846,4.66145844872954 L 18.17552960964743,5.2600884266028824 L 18.409911570649683,5.894632575836463 L 18.626172259085067,6.562483418411794 L 18.823423013397033,7.260896611963173 L 19.00085328792596,7.9870022268691425 L 19.157733983615135,8.73781653940888 L 19.29342044403516,9.510254292522998 L 19.407355104415522,10.301141373796579 L 19.49906978279781,11.107227858567912 L 19.568187603895815,11.925201364566066 L 19.61442454775691,12.751700663200136 L 19.63759061686099,13.583329491568481 L 19.63759061686099,14.416670508431517 L 19.61442454775691,15.248299336799864 L 19.568187603895815,16.07479863543393 L 19.49906978279781,16.892772141432086 L 19.407355104415526,17.69885862620342 L 19.293420444035164,18.489745707477 L 19.157733983615135,19.262183460591118 L 19.00085328792596,20.012997773130856 L 18.823423013397033,20.739103388036824 L 18.626172259085067,21.437516581588206 L 18.409911570649683,22.105367424163536 L 18.17552960964743,22.73991157339712 L 17.923989501830846,23.33854155127046 L 17.656324879458133,23.898797458798747 L 17.373635633876496,24.418377084283435 L 17.077083395832688,24.895145363593926 L 16.767886762083087,25.32714315360406 L 16.447316287918234,25.71259528273145 L 16.11668926617863,26.049917845498282 L 15.777364314215873,26.33772471113869 L 15.43073579104255,26.574833219507383 L 15.078228067611974,26.76026904088385 L 14.721289673772382,26.8932701797022 L 14.361387345947113,26.973290105754373 L 14.0,27.0 L 14.0,27.0 A 13 13 0 0 1 14.0 1.0" fill="dimgrey" fill-opacity="1" /></svg>