<?xml version="1.0" encoding="utf-8" ?>
<svg baseProfile="full" height="28px" version="1.1" width="28px" xmlns="http://www.w3.org/2000/svg" xmlns:ev="http://www.w3.org/2001/xml-events" xmlns:xlink="http://www.w3.org/1999/xlink"><defs /><circle cx="14.0" cy="14.0" fill="yellow" r="13" stroke="dimgrey" stroke-width="1" /><path d="M 14.0,1.0 L 14.760903759636053,1.0267098942456272 L 15.518680802510415,1.106729820297799 L 16.270217260211254,1.2397309591161516 L 17.012424908229807,1.4251667804926171 L 17.742253856137328,1.6622752888613075 L 18.456705080239047,1.9500821545017182 L 19.152842747205824,2.2874047172685508 L 19.827806278043024,2.6728568463959377 L 20.478822102823223,3.1048546364060723 L 21.103215057879936,3.5816229157165633 L 21.69841937862897,4.101202541201252 L 22.261989242845438,4.66145844872954 L 22.79160882107192,5.2600884266028824 L 23.28510179285844,5.894632575836463 L 23.740440289730017,6.562483418411794 L 24.1557532281332,7.260896611963173 L 24.529333998119753,7.9870022268691425 L 24.85964747617297,8.73781653940888 L 25.14533633335951,9.510254292522998 L 25.385226612885134,10.301141373796579 L 25.57833255413496,11.107227858567912 L 25.723860643375303,11.925201364566066 L 25.821212874471797,12.751700663200136 L 25.869989206224876,13.583329491568481 L 25.869989206224876,14.416670508431517 L 25.821212874471797,15.248299336799864 L 25.723860643375307,16.07479863543393 L 25.57833255413496,16.892772141432086 L 25.385226612885134,17.69885862620342 L 25.145336333359513,18.489745707477 L 24.85964747617297,19.262183460591118 L 24.529333998119753,20.012997773130856 L 24.155753228133204,20.739103388036824 L 23.740440289730017,21.437516581588206 L 23.28510179285844,22.105367424163536 L 22.79160882107192,22.73991157339712 L 22.261989242845438,23.33854155127046 L 21.698419378628977,23.898797458798747 L 21.103215057879936,24.418377084283435 L 20.478822102823223,24.895145363593926 L 19.827806278043028,25.32714315360406 L 19.152842747205824,25.71259528273145 L 18.45670508023905,26.049917845498282 L 17.742253856137335,26.33772471113869 L 17.012424908229807,26.574833219507383 L 16.270217260211254,26.76026904088385 L 15.518680802510417,26.8932701797022 L 14.760903759636056,26.973290105754373 L 14.000000000000002,27.0 L 14.0,27.0 A 13 13 0 0 0 14.0 1.0" fill="dimgrey" fill-opacity="1" /></svg>