<?xml version="1.0" encoding="utf-8" ?>
<svg baseProfile="full" height="28px" version="1.1" width="28px" xmlns="http://www.w3.org/2000/svg" xmlns:ev="http://www.w3.org/2001/xml-events" xmlns:xlink="http://www.w3.org/1999/xlink"><defs /><circle cx="14.0" cy="14.0" fill="yellow" r="13" stroke="dimgrey" stroke-width="1" /><path d="M 14.0,1.0 L 13.814659452544369,1.0267098942456272 L 13.630080509153654,1.106729820297799 L 13.44702164429831,1.2397309591161516 L 13.26623508612003,1.4251667804926171 L 13.088463725364962,1.6622752888613075 L 12.914438062686287,1.9500821545017182 L 12.74487320686034,2.2874047172685508 L 12.580465936251258,2.6728568463959377 L 12.421891835599219,3.1048546364060723 L 12.269802519897844,3.5816229157165633 L 12.124822956768405,4.101202541201252 L 11.987548898333817,4.66145844872954 L 11.858544433145383,5.2600884266028824 L 11.738339668221935,5.894632575836463 L 11.627428550726382,6.562483418411794 L 11.526266838230875,7.260896611963173 L 11.435270225911175,7.9870022268691425 L 11.354812638366017,8.73781653940888 L 11.285224693080725,9.510254292522998 L 11.22679234184904,10.301141373796579 L 11.179755695735873,11.107227858567912 L 11.144308038409434,11.925201364566066 L 11.120595031897178,12.751700663200136 L 11.108714118029283,13.583329491568481 L 11.108714118029283,14.416670508431517 L 11.120595031897178,15.248299336799864 L 11.144308038409434,16.07479863543393 L 11.179755695735873,16.892772141432086 L 11.226792341849038,17.69885862620342 L 11.285224693080723,18.489745707477 L 11.354812638366017,19.262183460591118 L 11.435270225911175,20.012997773130856 L 11.526266838230875,20.739103388036824 L 11.627428550726382,21.437516581588206 L 11.738339668221935,22.105367424163536 L 11.858544433145383,22.73991157339712 L 11.987548898333817,23.33854155127046 L 12.124822956768403,23.898797458798747 L 12.269802519897844,24.418377084283435 L 12.421891835599219,24.895145363593926 L 12.580465936251256,25.32714315360406 L 12.74487320686034,25.71259528273145 L 12.914438062686287,26.049917845498282 L 13.08846372536496,26.33772471113869 L 13.26623508612003,26.574833219507383 L 13.44702164429831,26.76026904088385 L 13.630080509153654,26.8932701797022 L 13.814659452544367,26.973290105754373 L 14.0,27.0 L 14.0,27.0 A 13 13 0 0 1 14.0 1.0" fill="dimgrey" fill-opacity="1" /></svg>