<?xml version="1.0" encoding="utf-8" ?>
<svg baseProfile="full" height="28px" version="1.1" width="28px" xmlns="http://www.w3.org/2000/svg" xmlns:ev="http://www.w3.org/2001/xml-events" xmlns:xlink="http://www.w3.org/1999/xlink"><defs /><circle cx="14.0" cy="14.0" fill="yellow" r="13" stroke="dimgrey" stroke-width="1" /><path d="M 14.0,1.0 L 13.18528828461592,1.0267098942456272 L 12.373924394425469,1.106729820297799 L 11.569242397690449,1.2397309591161516 L 10.774548905339186,1.4251667804926171 L 9.993109483392978,1.6622752888613075 L 9.228135234054825,1.9500821545017182 L 8.482769600601724,2.2874047172685508 L 7.7600754503019616,2.6728568463959377 L 7.063022488436525,3.1048546364060723 L 6.394475055143114,3.5816229157165633 L 5.757180355228105,4.101202541201252 L 5.1537571693127315,4.66145844872954 L 4.586685092701789,5.2600884266028824 L 4.058294346194648,5.894632575836463 L 3.5707562007081695,6.562483418411794 L 3.126074055058764,7.260896611963173 L 2.726075203566918,7.9870022268691425 L 2.3724033273129024,8.73781653940888 L 2.0665117398986226,9.510254292522998 L 1.809657415470305,10.301141373796579 L 1.6028958235421005,11.107227858567912 L 1.4470765918454713,11.925201364566066 L 1.3428400150265745,12.751700663200136 L 1.2906144235382353,13.583329491568481 L 1.2906144235382353,14.416670508431517 L 1.3428400150265745,15.248299336799864 L 1.4470765918454696,16.07479863543393 L 1.6028958235421005,16.892772141432086 L 1.8096574154703031,17.69885862620342 L 2.066511739898621,18.489745707477 L 2.3724033273129024,19.262183460591118 L 2.726075203566918,20.012997773130856 L 3.126074055058762,20.739103388036824 L 3.5707562007081712,21.437516581588206 L 4.058294346194646,22.105367424163536 L 4.586685092701789,22.73991157339712 L 5.15375716931273,23.33854155127046 L 5.757180355228099,23.898797458798747 L 6.394475055143112,24.418377084283435 L 7.063022488436525,24.895145363593926 L 7.760075450301958,25.32714315360406 L 8.482769600601724,25.71259528273145 L 9.228135234054822,26.049917845498282 L 9.993109483392969,26.33772471113869 L 10.774548905339186,26.574833219507383 L 11.569242397690445,26.76026904088385 L 12.373924394425469,26.8932701797022 L 13.185288284615917,26.973290105754373 L 13.999999999999998,27.0 L 14.0,27.0 A 13 13 0 0 0 14.0 1.0" fill="dimgrey" fill-opacity="1" /></svg>