<?xml version="1.0" encoding="utf-8" ?>
<svg baseProfile="full" height="28px" version="1.1" width="28px" xmlns="http://www.w3.org/2000/svg" xmlns:ev="http://www.w3.org/2001/xml-events" xmlns:xlink="http://www.w3.org/1999/xlink"><defs /><circle cx="14.0" cy="14.0" fill="yellow" r="13" stroke="dimgrey" stroke-width="1" /><path d="M 14.0,1.0 L 14.651197495904457,1.0267098942456272 L 15.299719081616816,1.106729820297799 L 15.942899842833944,1.2397309591161516 L 16.57809681184616,1.4251667804926171 L 17.202699828058464,1.6622752888613075 L 17.81414226370032,1.9500821545017182 L 18.40991157064968,2.2874047172685508 L 18.987559605032175,2.6728568463959377 L 19.544712687169415,3.1048546364060723 L 20.079081355537934,3.5816229157165633 L 20.588469774657682,4.101202541201252 L 21.07078475825103,4.66145844872954 L 21.52404437059415,5.2600884266028824 L 21.946386070716045,5.894632575836463 L 22.336074365978895,6.562483418411794 L 22.6915079435896,7.260896611963173 L 23.011226250737487,7.9870022268691425 L 23.293915496319123,8.73781653940888 L 23.538414049587757,9.510254292522998 L 23.743717213543242,10.301141373796579 L 23.908981353447494,11.107227858567912 L 24.03352736350059,11.925201364566066 L 24.116843457432196,12.751700663200136 L 24.158587271541094,13.583329491568481 L 24.158587271541094,14.416670508431517 L 24.116843457432196,15.248299336799864 L 24.03352736350059,16.07479863543393 L 23.908981353447494,16.892772141432086 L 23.743717213543245,17.69885862620342 L 23.538414049587757,18.489745707477 L 23.293915496319123,19.262183460591118 L 23.011226250737487,20.012997773130856 L 22.6915079435896,20.739103388036824 L 22.336074365978895,21.437516581588206 L 21.946386070716045,22.105367424163536 L 21.52404437059415,22.73991157339712 L 21.07078475825103,23.33854155127046 L 20.58846977465769,23.898797458798747 L 20.079081355537934,24.418377084283435 L 19.544712687169415,24.895145363593926 L 18.987559605032178,25.32714315360406 L 18.409911570649683,25.71259528273145 L 17.814142263700322,26.049917845498282 L 17.20269982805847,26.33772471113869 L 16.57809681184616,26.574833219507383 L 15.942899842833947,26.76026904088385 L 15.299719081616818,26.8932701797022 L 14.651197495904459,26.973290105754373 L 14.000000000000002,27.0 L 14.0,27.0 A 13 13 0 0 1 14.0 1.0" fill="dimgrey" fill-opacity="1" /></svg>