<?xml version="1.0" encoding="utf-8" ?>
<svg baseProfile="full" height="28px" version="1.1" width="28px" xmlns="http://www.w3.org/2000/svg" xmlns:ev="http://www.w3.org/2001/xml-events" xmlns:xlink="http://www.w3.org/1999/xlink"><defs /><circle cx="14.0" cy="14.0" fill="yellow" r="13" stroke="dimgrey" stroke-width="1" /><path d="M 14.0,1.0 L 14.832912859749268,1.0267098942456272 L 15.662403101898578,1.106729820297799 L 16.48506217311784,1.2397309591161516 L 17.297509590823594,1.4251667804926171 L 18.096406834307068,1.6622752888613075 L 18.878471063431864,1.9500821545017182 L 19.640488608528255,2.2874047172685508 L 20.379328176051192,2.6728568463959377 L 21.091953715737134,3.1048546364060723 L 21.775436896385806,3.5816229157165633 L 22.426969139001248,4.101202541201252 L 23.043873157845322,4.66145844872954 L 23.623613961979103,5.2600884266028824 L 24.163809272084386,5.894632575836463 L 24.662239309760427,6.562483418411794 L 25.1168559190695,7.260896611963173 L 25.525790982849003,7.9870022268691425 L 25.887364099205563,8.73781653940888 L 26.200089486646885,9.510254292522998 L 26.462682089476587,10.301141373796579 L 26.674062858363705,11.107227858567912 L 26.83336318438785,11.925201364566066 L 26.939928468339577,12.751700663200136 L 26.993320810608942,13.583329491568481 L 26.993320810608942,14.416670508431517 L 26.939928468339577,15.248299336799864 L 26.833363184387853,16.07479863543393 L 26.674062858363705,16.892772141432086 L 26.462682089476587,17.69885862620342 L 26.20008948664689,18.489745707477 L 25.887364099205563,19.262183460591118 L 25.525790982849003,20.012997773130856 L 25.1168559190695,20.739103388036824 L 24.662239309760423,21.437516581588206 L 24.16380927208439,22.105367424163536 L 23.623613961979103,22.73991157339712 L 23.043873157845326,23.33854155127046 L 22.426969139001255,23.898797458798747 L 21.77543689638581,24.418377084283435 L 21.091953715737134,24.895145363593926 L 20.379328176051196,25.32714315360406 L 19.64048860852826,25.71259528273145 L 18.878471063431867,26.049917845498282 L 18.096406834307075,26.33772471113869 L 17.297509590823594,26.574833219507383 L 16.485062173117843,26.76026904088385 L 15.66240310189858,26.8932701797022 L 14.832912859749271,26.973290105754373 L 14.000000000000002,27.0 L 14.0,27.0 A 13 13 0 0 1 14.0 1.0" fill="dimgrey" fill-opacity="1" /></svg>