<?xml version="1.0" encoding="utf-8" ?>
<svg baseProfile="full" height="28px" version="1.1" width="28px" xmlns="http://www.w3.org/2000/svg" xmlns:ev="http://www.w3.org/2001/xml-events" xmlns:xlink="http://www.w3.org/1999/xlink"><defs /><circle cx="14.0" cy="14.0" fill="yellow" r="13" stroke="dimgrey" stroke-width="1" /><path d="M 14.0,1.0 L 13.912936898734543,1.0267098942456272 L 13.826231558427162,1.106729820297799 L 13.740240269919418,1.2397309591161516 L 13.655316389860863,1.4251667804926171 L 13.57180888869077,1.6622752888613075 L 13.490060916643754,1.9500821545017182 L 13.410408393671839,2.2874047172685508 L 13.333178629077329,2.6728568463959377 L 13.258688976528676,3.1048546364060723 L 13.187245529986182,3.5816229157165633 L 13.119141865896262,4.101202541201252 L 13.054657836822852,4.66145844872954 L 12.994058421473193,5.2600884266028824 L 12.937592635843496,5.894632575836463 L 12.88549250995878,6.562483418411794 L 12.837972134411752,7.260896611963173 L 12.79522678061862,7.9870022268691425 L 12.757432098406973,8.73781653940888 L 12.72474339423295,9.510254292522998 L 12.697294992993708,10.301141373796579 L 12.675199686057603,11.107227858567912 L 12.658548267780263,11.925201364566066 L 12.647409162411108,12.751700663200136 L 12.64182814292343,13.583329491568481 L 12.64182814292343,14.416670508431517 L 12.647409162411108,15.248299336799864 L 12.658548267780262,16.07479863543393 L 12.675199686057603,16.892772141432086 L 12.697294992993708,17.69885862620342 L 12.72474339423295,18.489745707477 L 12.757432098406973,19.262183460591118 L 12.79522678061862,20.012997773130856 L 12.837972134411752,20.739103388036824 L 12.88549250995878,21.437516581588206 L 12.937592635843494,22.105367424163536 L 12.994058421473193,22.73991157339712 L 13.054657836822852,23.33854155127046 L 13.11914186589626,23.898797458798747 L 13.187245529986182,24.418377084283435 L 13.258688976528676,24.895145363593926 L 13.333178629077327,25.32714315360406 L 13.410408393671839,25.71259528273145 L 13.490060916643753,26.049917845498282 L 13.57180888869077,26.33772471113869 L 13.655316389860863,26.574833219507383 L 13.740240269919417,26.76026904088385 L 13.826231558427162,26.8932701797022 L 13.912936898734543,26.973290105754373 L 14.0,27.0 L 14.0,27.0 A 13 13 0 0 0 14.0 1.0" fill="dimgrey" fill-opacity="1" /></svg>