<?xml version="1.0" encoding="utf-8" ?>
<svg baseProfile="full" height="28px" version="1.1" width="28px" xmlns="http://www.w3.org/2000/svg" xmlns:ev="http://www.w3.org/2001/xml-events" xmlns:xlink="http://www.w3.org/1999/xlink"><defs /><circle cx="14.0" cy="14.0" fill="yellow" r="13" stroke="dimgrey" stroke-width="1" /><path d="M 14.0,1.0 L 14.812029995384746,1.0267098942456272 L 15.620723185338568,1.106729820297799 L 16.4227564760798,1.2397309591161516 L 17.21483414078119,1.4251667804926171 L 17.993701362418342,1.6622752888613075 L 18.756157608511067,1.9500821545017182 L 19.49906978279781,2.2874047172685508 L 20.21938509980027,2.6728568463959377 L 20.91414362937373,3.1048546364060723 L 21.580490459694936,3.5816229157165633 L 22.215687428707145,4.101202541201252 L 22.817124375815375,4.66145844872954 L 23.382329867596134,5.2600884266028824 L 23.908981353447494,5.894632575836463 L 24.3949147094477,6.562483418411794 L 24.838133131204575,7.260896611963173 L 25.236815339153065,7.9870022268691425 L 25.589323062583645,8.73781653940888 L 25.894207771648063,9.510254292522998 L 26.150216629679214,10.301141373796579 L 26.356297641365725,11.107227858567912 L 26.51160397562633,11.925201364566066 L 26.615497445420445,12.751700663200136 L 26.667551130195616,13.583329491568481 L 26.667551130195616,14.416670508431517 L 26.615497445420445,15.248299336799864 L 26.51160397562633,16.07479863543393 L 26.356297641365725,16.892772141432086 L 26.150216629679218,17.69885862620342 L 25.894207771648066,18.489745707477 L 25.589323062583645,19.262183460591118 L 25.236815339153065,20.012997773130856 L 24.83813313120458,20.739103388036824 L 24.394914709447697,21.437516581588206 L 23.908981353447494,22.105367424163536 L 23.382329867596134,22.73991157339712 L 22.81712437581538,23.33854155127046 L 22.215687428707152,23.898797458798747 L 21.580490459694936,24.418377084283435 L 20.91414362937373,24.895145363593926 L 20.219385099800274,25.32714315360406 L 19.49906978279781,25.71259528273145 L 18.75615760851107,26.049917845498282 L 17.993701362418353,26.33772471113869 L 17.21483414078119,26.574833219507383 L 16.422756476079805,26.76026904088385 L 15.62072318533857,26.8932701797022 L 14.81202999538475,26.973290105754373 L 14.000000000000002,27.0 L 14.0,27.0 A 13 13 0 0 1 14.0 1.0" fill="dimgrey" fill-opacity="1" /></svg>