<?xml version="1.0" encoding="utf-8" ?>
<svg baseProfile="full" height="28px" version="1.1" width="28px" xmlns="http://www.w3.org/2000/svg" xmlns:ev="http://www.w3.org/2001/xml-events" xmlns:xlink="http://www.w3.org/1999/xlink"><defs /><circle cx="14.0" cy="14.0" fill="yellow" r="13" stroke="dimgrey" stroke-width="1" /><path d="M 14.0,1.0 L 13.583543570125366,1.0267098942456272 L 13.168798449050712,1.106729820297799 L 12.757468913441082,1.2397309591161516 L 12.351245204588205,1.4251667804926171 L 11.951796582846468,1.6622752888613075 L 11.560764468284072,1.9500821545017182 L 11.179755695735876,2.2874047172685508 L 10.810335911974407,2.6728568463959377 L 10.454023142131438,3.1048546364060723 L 10.1122815518071,3.5816229157165633 L 9.786515430499382,4.101202541201252 L 9.478063421077344,4.66145844872954 L 9.188193019010455,5.2600884266028824 L 8.918095363957812,5.894632575836463 L 8.668880345119792,6.562483418411794 L 8.441572040465257,7.260896611963173 L 8.237104508575506,7.9870022268691425 L 8.056317950397226,8.73781653940888 L 7.899955256676565,9.510254292522998 L 7.7686589552617145,10.301141373796579 L 7.662968570818155,11.107227858567912 L 7.5833184078060825,11.925201364566066 L 7.5300357658302195,12.751700663200136 L 7.503339594695537,13.583329491568481 L 7.503339594695537,14.416670508431517 L 7.5300357658302195,15.248299336799864 L 7.583318407806082,16.07479863543393 L 7.662968570818155,16.892772141432086 L 7.768658955261714,17.69885862620342 L 7.899955256676564,18.489745707477 L 8.056317950397226,19.262183460591118 L 8.237104508575506,20.012997773130856 L 8.441572040465257,20.739103388036824 L 8.668880345119794,21.437516581588206 L 8.91809536395781,22.105367424163536 L 9.188193019010455,22.73991157339712 L 9.478063421077344,23.33854155127046 L 9.786515430499378,23.898797458798747 L 10.1122815518071,24.418377084283435 L 10.454023142131438,24.895145363593926 L 10.810335911974406,25.32714315360406 L 11.179755695735874,25.71259528273145 L 11.56076446828407,26.049917845498282 L 11.951796582846464,26.33772471113869 L 12.351245204588205,26.574833219507383 L 12.75746891344108,26.76026904088385 L 13.168798449050712,26.8932701797022 L 13.583543570125364,26.973290105754373 L 14.0,27.0 L 14.0,27.0 A 13 13 0 0 0 14.0 1.0" fill="dimgrey" fill-opacity="1" /></svg>