<?xml version="1.0" encoding="utf-8" ?>
<svg baseProfile="full" height="28px" version="1.1" width="28px" xmlns="http://www.w3.org/2000/svg" xmlns:ev="http://www.w3.org/2001/xml-events" xmlns:xlink="http://www.w3.org/1999/xlink"><defs /><circle cx="14.0" cy="14.0" fill="yellow" r="13" stroke="dimgrey" stroke-width="1" /><path d="M 14.0,1.0 L 14.81471171538408,1.0267098942456272 L 15.626075605574531,1.106729820297799 L 16.43075760230955,1.2397309591161516 L 17.225451094660812,1.4251667804926171 L 18.006890516607022,1.6622752888613075 L 18.771864765945175,1.9500821545017182 L 19.517230399398276,2.2874047172685508 L 20.23992454969804,2.6728568463959377 L 20.936977511563477,3.1048546364060723 L 21.605524944856885,3.5816229157165633 L 22.242819644771895,4.101202541201252 L 22.846242830687267,4.66145844872954 L 23.41331490729821,5.2600884266028824 L 23.94170565380535,5.894632575836463 L 24.429243799291832,6.562483418411794 L 24.873925944941234,7.260896611963173 L 25.273924796433082,7.9870022268691425 L 25.627596672687098,8.73781653940888 L 25.933488260101377,9.510254292522998 L 26.190342584529695,10.301141373796579 L 26.3971041764579,11.107227858567912 L 26.552923408154527,11.925201364566066 L 26.657159984973426,12.751700663200136 L 26.709385576461763,13.583329491568481 L 26.709385576461763,14.416670508431517 L 26.657159984973426,15.248299336799864 L 26.55292340815453,16.07479863543393 L 26.3971041764579,16.892772141432086 L 26.190342584529695,17.69885862620342 L 25.933488260101377,18.489745707477 L 25.627596672687098,19.262183460591118 L 25.273924796433082,20.012997773130856 L 24.873925944941238,20.739103388036824 L 24.42924379929183,21.437516581588206 L 23.941705653805354,22.105367424163536 L 23.41331490729821,22.73991157339712 L 22.84624283068727,23.33854155127046 L 22.2428196447719,23.898797458798747 L 21.60552494485689,24.418377084283435 L 20.936977511563477,24.895145363593926 L 20.239924549698042,25.32714315360406 L 19.517230399398276,25.71259528273145 L 18.77186476594518,26.049917845498282 L 18.00689051660703,26.33772471113869 L 17.225451094660812,26.574833219507383 L 16.430757602309555,26.76026904088385 L 15.626075605574531,26.8932701797022 L 14.814711715384083,26.973290105754373 L 14.000000000000002,27.0 L 14.0,27.0 A 13 13 0 0 0 14.0 1.0" fill="dimgrey" fill-opacity="1" /></svg>