<?xml version="1.0" encoding="utf-8" ?>
<svg baseProfile="full" height="28px" version="1.1" width="28px" xmlns="http://www.w3.org/2000/svg" xmlns:ev="http://www.w3.org/2001/xml-events" xmlns:xlink="http://www.w3.org/1999/xlink"><defs /><circle cx="14.0" cy="14.0" fill="yellow" r="13" stroke="dimgrey" stroke-width="1" /><path d="M 14.0,1.0 L 13.187970004615254,1.0267098942456272 L 12.379276814661432,1.106729820297799 L 11.577243523920199,1.2397309591161516 L 10.785165859218813,1.4251667804926171 L 10.006298637581656,1.6622752888613075 L 9.243842391488933,1.9500821545017182 L 8.500930217202189,2.2874047172685508 L 7.78061490019973,2.6728568463959377 L 7.085856370626271,3.1048546364060723 L 6.419509540305066,3.5816229157165633 L 5.784312571292855,4.101202541201252 L 5.182875624184623,4.66145844872954 L 4.617670132403866,5.2600884266028824 L 4.091018646552508,5.894632575836463 L 3.6050852905522994,6.562483418411794 L 3.161866868795425,7.260896611963173 L 2.7631846608469353,7.9870022268691425 L 2.4106769374163566,8.73781653940888 L 2.1057922283519357,9.510254292522998 L 1.8497833703207842,10.301141373796579 L 1.6437023586342754,11.107227858567912 L 1.4883960243736727,11.925201364566066 L 1.3845025545795533,12.751700663200136 L 1.3324488698043844,13.583329491568481 L 1.3324488698043844,14.416670508431517 L 1.3845025545795533,15.248299336799864 L 1.488396024373671,16.07479863543393 L 1.6437023586342754,16.892772141432086 L 1.8497833703207824,17.69885862620342 L 2.105792228351934,18.489745707477 L 2.4106769374163566,19.262183460591118 L 2.7631846608469353,20.012997773130856 L 3.161866868795423,20.739103388036824 L 3.605085290552301,21.437516581588206 L 4.091018646552506,22.105367424163536 L 4.617670132403866,22.73991157339712 L 5.182875624184621,23.33854155127046 L 5.784312571292848,23.898797458798747 L 6.419509540305064,24.418377084283435 L 7.085856370626271,24.895145363593926 L 7.780614900199726,25.32714315360406 L 8.500930217202187,25.71259528273145 L 9.24384239148893,26.049917845498282 L 10.006298637581647,26.33772471113869 L 10.785165859218813,26.574833219507383 L 11.577243523920195,26.76026904088385 L 12.37927681466143,26.8932701797022 L 13.18797000461525,26.973290105754373 L 13.999999999999998,27.0 L 14.0,27.0 A 13 13 0 0 1 14.0 1.0" fill="dimgrey" fill-opacity="1" /></svg>