<?xml version="1.0" encoding="utf-8" ?>
<svg baseProfile="full" height="28px" version="1.1" width="28px" xmlns="http://www.w3.org/2000/svg" xmlns:ev="http://www.w3.org/2001/xml-events" xmlns:xlink="http://www.w3.org/1999/xlink"><defs /><circle cx="14.0" cy="14.0" fill="yellow" r="13" stroke="dimgrey" stroke-width="1" /><path d="M 14.0,1.0 L 14.257384228495962,1.0267098942456272 L 14.513710809988288,1.106729820297799 L 14.767926443571751,1.2397309591161516 L 15.018986502678871,1.4251667804926171 L 15.265859327674564,1.6622752888613075 L 15.507530465166868,1.9500821545017182 L 15.743006836613532,2.2874047172685508 L 15.971320819094755,2.6728568463959377 L 16.19153422148333,3.1048546364060723 L 16.40274213967321,3.5816229157165633 L 16.604076675024604,4.101202541201252 L 16.794710500745627,4.66145844872954 L 16.97386026155556,5.2600884266028824 L 17.14078979265974,5.894632575836463 L 17.294813144808582,6.562483418411794 L 17.4352974030102,7.260896611963173 L 17.56166528731387,7.9870022268691425 L 17.673397524977158,8.73781653940888 L 17.770034984269017,9.510254292522998 L 17.851180561140545,10.301141373796579 L 17.916500811010707,11.107227858567912 L 17.965727318961637,11.925201364566066 L 17.99865780271311,12.751700663200136 L 18.01515694384383,13.583329491568481 L 18.01515694384383,14.416670508431517 L 17.99865780271311,15.248299336799864 L 17.96572731896164,16.07479863543393 L 17.916500811010707,16.892772141432086 L 17.851180561140545,17.69885862620342 L 17.770034984269017,18.489745707477 L 17.673397524977158,19.262183460591118 L 17.56166528731387,20.012997773130856 L 17.4352974030102,20.739103388036824 L 17.29481314480858,21.437516581588206 L 17.14078979265974,22.105367424163536 L 16.97386026155556,22.73991157339712 L 16.794710500745627,23.33854155127046 L 16.604076675024608,23.898797458798747 L 16.40274213967321,24.418377084283435 L 16.19153422148333,24.895145363593926 L 15.971320819094757,25.32714315360406 L 15.743006836613532,25.71259528273145 L 15.50753046516687,26.049917845498282 L 15.265859327674566,26.33772471113869 L 15.018986502678871,26.574833219507383 L 14.767926443571751,26.76026904088385 L 14.513710809988288,26.8932701797022 L 14.257384228495962,26.973290105754373 L 14.0,27.0 L 14.0,27.0 A 13 13 0 0 0 14.0 1.0" fill="dimgrey" fill-opacity="1" /></svg>